# Exported from Wings 3D 2.2.5
mtllib Holo_message.mtl
o tetrahedron1
#5 vertices, 6 faces
v 0.0000000e+0 1.63480303 0.0000000e+0
v 0.0000000e+0 1.8098665e-3 1.15470054
v -1.00000000 1.8098665e-3 -0.57735027
v 1.00000000 1.8098665e-3 -0.57735027
v 0.0000000e+0 -1.63118330 0.0000000e+0
vt 0.0000000e+0 0.28436276
vt 0.15919742 0.57735027
vt 0.17413592 0.0000000e+0
vt 0.33333333 0.29298751
vt 0.33333333 0.28436276
vt 0.49253075 0.57735027
vt 0.50746925 0.0000000e+0
vt 0.66666667 0.28436276
vt 0.66666667 0.29298751
vt 0.82586408 0.57735027
vt 0.84080258 0.0000000e+0
vt 1.00000000 0.29298751
vn 0.0000000e+0 1.00000000 -1.1102230e-16
vn 0.0000000e+0 0.0000000e+0 1.00000000
vn -0.86602540 2.9439234e-17 -0.50000000
vn 0.86602540 2.9439234e-17 -0.50000000
vn 0.0000000e+0 -1.00000000 -1.1102230e-16
g tetrahedron1_Holo_message_auv
usemtl Holo_message_auv
s 1
f 1/2/1 3/1/3 2/4/2
f 1/6/1 4/5/4 3/9/3
f 2/8/2 4/12/4 1/10/1
f 2/8/2 5/11/5 4/12/4
f 3/1/3 5/3/5 2/4/2
f 4/5/4 5/7/5 3/9/3
