# Exported from Wings 3D 2.2.5
mtllib Holo_frame.mtl
o tetrahedron1
#43 vertices, 46 faces
v 0.0000000e+0 1.63480303 0.0000000e+0
v 0.0000000e+0 1.8098665e-3 1.15470054
v -1.00000000 1.8098665e-3 -0.57735027
v 1.00000000 1.8098665e-3 -0.57735027
v 0.0000000e+0 1.47150371 -5.7735027e-2
v 0.90000000 1.8098665e-3 -0.57735027
v -0.90000000 1.8098665e-3 -0.57735027
v -5.0000000e-2 1.8098665e-3 1.06809800
v -0.95000000 1.8098665e-3 -0.49074773
v 5.0000000e-2 1.8098665e-3 1.06809800
v 0.95000000 1.8098665e-3 -0.49074773
v -5.0000000e-2 1.47150371 2.8867513e-2
v 5.0000000e-2 1.47150371 2.8867513e-2
v 0.0000000e+0 -1.63118330 0.0000000e+0
v 0.0000000e+0 1.8098665e-3 1.15470054
v -1.00000000 1.8098665e-3 -0.57735027
v 0.0000000e+0 -1.46788398 -5.7735027e-2
v -0.90000000 1.8098665e-3 -0.57735027
v -5.0000000e-2 1.8098665e-3 1.06809800
v -0.95000000 1.8098665e-3 -0.49074773
v 5.0000000e-2 1.8098665e-3 1.06809800
v -5.0000000e-2 -1.46788398 2.8867513e-2
v 5.0000000e-2 -1.46788398 2.8867513e-2
v 0.0000000e+0 -1.63118330 0.0000000e+0
v -1.00000000 1.8098665e-3 -0.57735027
v 1.00000000 1.8098665e-3 -0.57735027
v 0.0000000e+0 -1.46788398 -5.7735027e-2
v 0.90000000 1.8098665e-3 -0.57735027
v -0.90000000 1.8098665e-3 -0.57735027
v -0.95000000 1.8098665e-3 -0.49074773
v 0.95000000 1.8098665e-3 -0.49074773
v -5.0000000e-2 -1.46788398 2.8867513e-2
v 5.0000000e-2 -1.46788398 2.8867513e-2
v 0.0000000e+0 -1.63118330 0.0000000e+0
v 0.0000000e+0 1.8098665e-3 1.15470054
v 1.00000000 1.8098665e-3 -0.57735027
v 0.0000000e+0 -1.46788398 -5.7735027e-2
v 0.90000000 1.8098665e-3 -0.57735027
v -5.0000000e-2 1.8098665e-3 1.06809800
v 5.0000000e-2 1.8098665e-3 1.06809800
v 0.95000000 1.8098665e-3 -0.49074773
v -5.0000000e-2 -1.46788398 2.8867513e-2
v 5.0000000e-2 -1.46788398 2.8867513e-2
vt 0.0000000e+0 0.0000000e+0
vt 0.0000000e+0 0.73831964
vt 0.0000000e+0 1.00000000
vt 3.1225023e-17 0.24924282
vt 9.2807706e-17 0.49848563
vt 1.3597310e-2 0.99738320
vt 1.3846823e-2 0.73831964
vt 1.3846823e-2 5.5511151e-17
vt 1.3846823e-2 0.24924282
vt 1.3846823e-2 0.24924282
vt 1.3846823e-2 0.49848563
vt 1.3846823e-2 0.0000000e+0
vt 1.3846823e-2 0.49848563
vt 2.7693646e-2 0.49848563
vt 2.7693646e-2 8.3266727e-17
vt 2.7693646e-2 0.24924282
vt 2.7693646e-2 8.3266727e-17
vt 2.7693646e-2 0.49848563
vt 2.7693646e-2 0.24924282
vt 4.1540469e-2 0.0000000e+0
vt 4.1540469e-2 0.24924282
vt 4.1540469e-2 0.49158890
vt 4.1540469e-2 0.49848563
vt 4.1540469e-2 0.24217804
vt 4.1540469e-2 0.24217804
vt 4.8463881e-2 0.47959720
vt 5.5385248e-2 0.24194009
vt 5.5385248e-2 0.24194009
vt 5.5387292e-2 0.49158890
vt 5.5387292e-2 0.49158890
vt 6.2310704e-2 0.47959720
vt 6.9234115e-2 0.49158890
vt 7.6157527e-2 0.47959720
vt 8.3080938e-2 0.49158890
vt 8.3080938e-2 0.49158890
vt 9.0004350e-2 0.47959720
vt 9.0648735e-2 0.73831964
vt 9.5181172e-2 0.76187087
vt 9.6927761e-2 0.47959720
vt 9.6927761e-2 0.49158890
vt 0.10385117 0.49158890
vt 0.11077458 0.47959720
vt 0.11769800 0.49158890
vt 0.12462141 0.47959720
vt 0.12462141 0.47959720
vt 0.13154482 0.49158890
vt 0.13846823 0.49848563
vt 0.13846823 0.52246903
vt 0.13846823 0.47959720
vt 0.13846823 0.49158890
vt 0.14539164 0.47959720
vt 0.15231505 0.49158890
vt 0.15923847 0.47959720
vt 0.16616188 0.49158890
vt 0.16616188 0.47959720
vt 0.17308529 0.49158890
vt 0.17586694 8.3627549e-14
vt 0.17586694 0.0000000e+0
vt 0.17627907 2.3979860e-2
vt 0.17627907 2.3979860e-2
vt 0.18000870 0.47959720
vt 0.18369743 0.45561734
vt 0.18410957 0.47959720
vt 0.25834890 0.95028073
vt 0.26308964 0.73831964
vt 0.27194621 0.94766393
vt 0.27194621 0.94766393
vt 0.27693646 0.73831964
vt 0.28554352 0.95028073
vt 0.30459126 0.23765710
vt 0.30459126 0.23765710
vt 0.31843604 0.23741916
vt 0.31843604 0.23257072
vt 0.31843604 0.23741916
vt 0.31843604 0.23257072
vt 0.33226536 0.23326673
vt 0.33226536 0.23326673
vt 0.44467395 0.47906168
vt 0.44587948 0.45510859
vt 0.44871124 0.76187087
vt 0.45324368 0.73831964
vt 0.46757899 2.3953084e-2
vt 0.46757899 2.3953084e-2
vt 0.46878452 0.0000000e+0
vt 0.46878452 4.0523140e-14
vt 0.53029510 0.99738320
vt 0.54389241 1.00000000
vt 0.54389241 0.73831964
vt 0.54389241 0.98756246
vt 0.55773924 0.73831964
vt 0.55773924 0.98756246
vt 0.55773924 0.73831964
vt 0.55773924 0.98756246
vt 0.57158606 0.73831964
vt 0.57158606 0.98756246
vt 0.57158606 0.97477214
vt 0.58119311 0.24579495
vt 0.58119311 0.24579495
vt 0.58472231 0.97915089
vt 0.59502243 0.24649096
vt 0.59502243 0.22190505
vt 0.59502243 0.24649096
vt 0.59502243 0.22190505
vt 0.60877336 0.22353185
vt 0.60877336 0.22353185
vt 0.65040356 0.73831964
vt 0.66353981 0.74269839
vt 0.66353981 0.97477214
vt 0.67667606 0.97915089
vt 0.70435469 0.47634613
vt 0.70717239 0.45252882
vt 0.74235731 0.73831964
vt 0.75549356 0.74269839
vt 0.75549356 0.74269839
vt 0.75789103 2.3817306e-2
vt 0.75789103 2.3817306e-2
vt 0.76070873 1.5876189e-14
vt 0.76070873 0.0000000e+0
vt 0.76862981 0.73831964
vt 0.83431105 0.97915089
vt 0.84744730 0.97477214
vt 0.85629006 0.25281427
vt 0.85629006 0.25281427
vt 0.87004099 0.25444107
vt 0.87004099 4.3787499e-3
vt 0.87004099 0.25444107
vt 0.88317724 0.0000000e+0
vt 0.94885849 0.24083125
vt 0.96199474 0.23645250
vn 0.0000000e+0 1.00000000 4.7184479e-16
vn 0.0000000e+0 0.0000000e+0 1.00000000
vn -0.86602540 0.0000000e+0 -0.50000000
vn 0.86602540 0.0000000e+0 -0.50000000
vn 0.0000000e+0 -0.81211955 -0.58349107
vn -0.79770327 0.0000000e+0 -0.60305016
vn 0.79770327 0.0000000e+0 -0.60305016
vn -0.92110839 0.0000000e+0 -0.38930621
vn -0.12340513 0.0000000e+0 0.99235638
vn 0.92110839 0.0000000e+0 -0.38930621
vn 0.12340513 0.0000000e+0 0.99235638
vn -0.50531809 -0.81211955 0.29174554
vn 0.50531809 -0.81211955 0.29174554
vn 0.0000000e+0 -1.00000000 4.7184479e-16
vn 0.0000000e+0 0.33333333 0.94280904
vn -0.81649658 0.33333333 -0.47140452
vn 0.0000000e+0 0.81211955 -0.58349107
vn 0.46291005 0.81440025 -0.34995216
vn -0.53452248 0.81440025 -0.22591578
vn -7.1612434e-2 0.81440025 0.57586794
vn 0.53452248 0.81440025 -0.22591578
vn -0.50531809 0.81211955 0.29174554
vn 0.50531809 0.81211955 0.29174554
vn 0.0000000e+0 -1.00000000 4.7184479e-16
vn -0.81649658 0.33333333 -0.47140452
vn 0.81649658 0.33333333 -0.47140452
vn 0.0000000e+0 0.81211955 -0.58349107
vn -0.46291005 0.81440025 -0.34995216
vn 0.46291005 0.81440025 -0.34995216
vn -7.1612434e-2 0.81440025 0.57586794
vn 7.1612434e-2 0.81440025 0.57586794
vn -0.50531809 0.81211955 0.29174554
vn 0.50531809 0.81211955 0.29174554
vn 0.0000000e+0 -1.00000000 4.7184479e-16
vn 0.0000000e+0 0.33333333 0.94280904
vn 0.81649658 0.33333333 -0.47140452
vn 0.0000000e+0 0.81211955 -0.58349107
vn -0.46291005 0.81440025 -0.34995216
vn -0.53452248 0.81440025 -0.22591578
vn 0.53452248 0.81440025 -0.22591578
vn 7.1612434e-2 0.81440025 0.57586794
vn -0.50531809 0.81211955 0.29174554
vn 0.50531809 0.81211955 0.29174554
g tetrahedron1_Holo_frame_auv
usemtl Holo_frame_auv
s 1
f 1/78/1 5/79/5 7/98/7 3/102/3
f 1/63/1 12/62/12 8/71/8 2/72/2
f 1/110/1 13/111/13 11/123/11 4/124/4
f 2/103/2 10/104/10 13/111/13 1/110/1
f 2/103/2 24/117/24 33/116/33 10/104/10
f 3/24/3 9/28/9 12/62/12 1/63/1
f 3/24/3 34/57/34 42/60/42 9/28/9
f 4/73/4 6/76/6 5/79/5 1/78/1
f 4/73/4 14/85/14 17/82/17 6/76/6
f 5/11/5 12/5/12 9/4/9 7/10/7
f 5/56/5 13/55/13 12/61/12
f 6/19/6 11/21/11 13/23/13 5/18/5
f 6/19/6 17/17/17 23/20/23 11/21/11
f 7/98/7 37/83/37 34/84/34 3/102/3
f 8/71/8 32/59/32 24/58/24 2/72/2
f 9/4/9 42/1/42 37/8/37 7/10/7
f 10/9/10 8/16/8 12/14/12 13/13/13
f 10/9/10 33/12/33 32/15/32 8/16/8
f 11/123/11 23/115/23 14/118/14 4/124/4
f 14/37/14 22/38/22 20/6/20 16/3/16
f 14/118/14 23/115/23 21/105/21 15/101/15
f 15/67/15 19/64/19 22/38/22 14/37/14
f 15/51/15 21/52/21 19/50/19
f 16/100/16 18/97/18 17/82/17 14/85/14
f 16/32/16 20/33/20 18/35/18
f 18/121/18 20/120/20 22/113/22 17/119/17
f 22/39/22 23/42/23 17/41/17
f 23/88/23 22/90/22 19/91/19 21/89/21
f 24/47/24 27/48/27 28/7/28 26/2/26
f 24/58/24 32/59/32 30/27/30 25/25/25
f 25/68/25 29/65/29 27/48/27 24/47/24
f 25/34/25 30/36/30 29/40/29
f 26/126/26 31/122/31 33/116/33 24/117/24
f 27/106/27 33/107/33 31/99/31 28/96/28
f 28/22/28 31/26/31 26/29/26
f 29/129/29 30/128/30 32/125/32 27/127/27
f 32/42/32 33/44/33 27/43/27
f 34/84/34 37/83/37 38/77/38 36/75/36
f 34/81/34 43/80/43 40/69/40 35/66/35
f 35/74/35 39/70/39 42/60/42 34/57/34
f 35/53/35 40/54/40 39/52/39
f 36/87/36 41/86/41 43/80/43 34/81/34
f 37/112/37 43/114/43 41/109/41 38/108/38
f 38/30/38 41/31/41 36/32/36
f 42/45/42 43/49/43 37/46/37
f 43/92/43 42/94/42 39/95/39 40/93/40
