# Exported from Wings 3D 2.2.5
mtllib stalagmite_uv.mtl
o cone1
#17 vertices, 17 faces
v 0.46000000 -0.38946151 1.5422990e-18
v 0.42498458 -0.38946151 0.17603438
v 0.32526912 -0.38946151 0.32526912
v 0.17603438 -0.38946151 0.42498458
v 7.6374140e-18 -0.38946151 0.46000000
v -0.17603438 -0.38946151 0.42498458
v -0.32526912 -0.38946151 0.32526912
v -0.42498458 -0.38946151 0.17603438
v -0.46000000 -0.38946151 5.7876052e-17
v -0.42498458 -0.38946151 -0.17603438
v -0.32526912 -0.38946151 -0.32526912
v -0.17603438 -0.38946151 -0.42498458
v -1.0503009e-16 -0.38946151 -0.46000000
v 0.17603438 -0.38946151 -0.42498458
v 0.32526912 -0.38946151 -0.32526912
v 0.42498458 -0.38946151 -0.17603438
v -1.4526619e-16 1.55879789 1.1864258e-16
vt 0.0000000e+0 1.0459308e-2
vt 0.0000000e+0 0.84256328
vt 1.1984159e-2 0.78231485
vt 1.1984159e-2 0.90281170
vt 4.6112149e-2 0.73123870
vt 4.6112149e-2 0.95388785
vt 6.0909083e-2 2.4858329e-3
vt 9.7188298e-2 0.69711071
vt 9.7188298e-2 0.98801584
vt 0.11929566 0.68512655
vt 0.12228753 0.0000000e+0
vt 0.15743672 0.68512655
vt 0.15743672 1.00000000
vt 0.18364192 3.0217940e-3
vt 0.21768515 0.69711071
vt 0.21768515 0.98801584
vt 0.24447905 9.0860064e-3
vt 0.24447905 1.1526922e-2
vt 0.26876130 0.73123870
vt 0.26876130 0.95388785
vt 0.30288929 0.90281170
vt 0.30288929 0.78231485
vt 0.30547379 1.7967208e-3
vt 0.31487345 0.84256328
vt 0.35619424 0.68504981
vt 0.36687627 0.0000000e+0
vt 0.42819288 3.7102892e-3
vt 0.48893071 9.0860064e-3
vt 0.48893071 1.2897760e-2
vt 0.54992545 1.7967208e-3
vt 0.60064590 0.68504981
vt 0.61132794 0.0000000e+0
vt 0.67264455 3.7102892e-3
vt 0.73338237 1.2897760e-2
vt 0.73338237 9.0860064e-3
vt 0.79437711 1.7967208e-3
vt 0.84509756 0.68504981
vt 0.85577960 0.0000000e+0
vt 0.91709621 3.7102892e-3
vt 0.97783403 1.2897760e-2
vn 0.96115148 -0.27602144 2.7919732e-17
vn 0.88798818 -0.27602144 0.36781675
vn 0.67963673 -0.27602144 0.67963673
vn 0.36781675 -0.27602144 0.88798818
vn 0.0000000e+0 -0.27602144 0.96115148
vn -0.36781675 -0.27602144 0.88798818
vn -0.67963673 -0.27602144 0.67963673
vn -0.88798818 -0.27602144 0.36781675
vn -0.96115148 -0.27602144 6.9799329e-17
vn -0.88798818 -0.27602144 -0.36781675
vn -0.67963673 -0.27602144 -0.67963673
vn -0.36781675 -0.27602144 -0.88798818
vn -1.1167893e-16 -0.27602144 -0.96115148
vn 0.36781675 -0.27602144 -0.88798818
vn 0.67963673 -0.27602144 -0.67963673
vn 0.88798818 -0.27602144 -0.36781675
vn -2.7681580e-16 1.00000000 1.6916521e-16
g cone1_cone1_auv
usemtl cone1_auv
s 1
f 1/11/1 17/10/17 2/7/2
f 2/3/2 3/5/3 4/8/4 5/12/5 6/15/6 7/19/7 8/22/8 9/24/9 10/21/10 11/20/11 12/16/12 13/13/13 14/9/14 15/6/15 16/4/16 1/2/1
f 2/7/2 17/10/17 3/1/3
f 3/40/3 17/37/17 4/39/4
f 4/39/4 17/37/17 5/38/5
f 5/38/5 17/37/17 6/36/6
f 6/36/6 17/37/17 7/35/7
f 7/29/7 17/25/17 8/27/8
f 8/27/8 17/25/17 9/26/9
f 9/26/9 17/25/17 10/23/10
f 10/23/10 17/25/17 11/17/11
f 11/34/11 17/31/17 12/33/12
f 12/33/12 17/31/17 13/32/13
f 13/32/13 17/31/17 14/30/14
f 14/30/14 17/31/17 15/28/15
f 15/18/15 17/10/17 16/14/16
f 16/14/16 17/10/17 1/11/1
