# Exported from Wings 3D 2.2.5
mtllib stalagmite.mtl
o cone1
#17 vertices, 17 faces
v 0.46000000 -0.38946151 1.5422990e-18
v 0.42498458 -0.38946151 0.17603438
v 0.32526912 -0.38946151 0.32526912
v 0.17603438 -0.38946151 0.42498458
v 7.6374140e-18 -0.38946151 0.46000000
v -0.17603438 -0.38946151 0.42498458
v -0.32526912 -0.38946151 0.32526912
v -0.42498458 -0.38946151 0.17603438
v -0.46000000 -0.38946151 5.7876052e-17
v -0.42498458 -0.38946151 -0.17603438
v -0.32526912 -0.38946151 -0.32526912
v -0.17603438 -0.38946151 -0.42498458
v -1.0503009e-16 -0.38946151 -0.46000000
v 0.17603438 -0.38946151 -0.42498458
v 0.32526912 -0.38946151 -0.32526912
v 0.42498458 -0.38946151 -0.17603438
v -1.4526619e-16 1.55879789 1.1864258e-16
vn 0.96115148 -0.27602144 -1.1167893e-16
vn 0.88798818 -0.27602144 0.36781675
vn 0.67963673 -0.27602144 0.67963673
vn 0.36781675 -0.27602144 0.88798818
vn 1.3959866e-17 -0.27602144 0.96115148
vn -0.36781675 -0.27602144 0.88798818
vn -0.67963673 -0.27602144 0.67963673
vn -0.88798818 -0.27602144 0.36781675
vn -0.96115148 -0.27602144 0.0000000e+0
vn -0.88798818 -0.27602144 -0.36781675
vn -0.67963673 -0.27602144 -0.67963673
vn -0.36781675 -0.27602144 -0.88798818
vn -1.3959866e-16 -0.27602144 -0.96115148
vn 0.36781675 -0.27602144 -0.88798818
vn 0.67963673 -0.27602144 -0.67963673
vn 0.88798818 -0.27602144 -0.36781675
vn -3.6908773e-16 1.00000000 2.2299050e-16
g cone1_default
usemtl default
s 1
f 1//1 17//17 2//2
f 2//2 3//3 4//4 5//5 6//6 7//7 8//8 9//9 10//10 11//11 12//12 13//13 14//14 15//15 16//16 1//1
f 2//2 17//17 3//3
f 3//3 17//17 4//4
f 4//4 17//17 5//5
f 5//5 17//17 6//6
f 6//6 17//17 7//7
f 7//7 17//17 8//8
f 8//8 17//17 9//9
f 9//9 17//17 10//10
f 10//10 17//17 11//11
f 11//11 17//17 12//12
f 12//12 17//17 13//13
f 13//13 17//17 14//14
f 14//14 17//17 15//15
f 15//15 17//17 16//16
f 16//16 17//17 1//1
